<mxfile host="app.diagrams.net" agent="Mozilla/5.0 (Windows NT 10.0; Win64; x64; rv:134.0) Gecko/20100101 Firefox/134.0" version="26.0.10">
  <diagram name="Page-1" id="1UVuTo6OyBwIhhFdItL1">
    <mxGraphModel dx="1444" dy="787" grid="1" gridSize="10" guides="1" tooltips="1" connect="1" arrows="1" fold="1" page="1" pageScale="1" pageWidth="850" pageHeight="1100" math="0" shadow="0">
      <root>
        <mxCell id="0" />
        <mxCell id="1" parent="0" />
        <mxCell id="z_KxUEg1rJt2UnxQ0d3g-74" value="&lt;font style=&quot;font-size: 20px;&quot;&gt;11.48&lt;font&gt;&lt;br&gt;&lt;/font&gt;&lt;/font&gt;" style="text;html=1;align=center;verticalAlign=middle;resizable=0;points=[];autosize=1;strokeColor=none;fillColor=none;rotation=-45;" vertex="1" parent="1">
          <mxGeometry x="940" y="570" width="70" height="40" as="geometry" />
        </mxCell>
        <mxCell id="z_KxUEg1rJt2UnxQ0d3g-2" value="" style="endArrow=classic;html=1;rounded=0;strokeWidth=2;" edge="1" parent="1">
          <mxGeometry width="50" height="50" relative="1" as="geometry">
            <mxPoint x="280" y="560" as="sourcePoint" />
            <mxPoint x="280" y="210" as="targetPoint" />
          </mxGeometry>
        </mxCell>
        <mxCell id="z_KxUEg1rJt2UnxQ0d3g-25" value="&lt;b&gt;&lt;font style=&quot;font-size: 20px;&quot;&gt;Frequency&lt;/font&gt;&lt;/b&gt;" style="text;html=1;align=center;verticalAlign=middle;resizable=0;points=[];autosize=1;strokeColor=none;fillColor=none;rotation=-90;" vertex="1" parent="1">
          <mxGeometry x="155" y="380" width="120" height="40" as="geometry" />
        </mxCell>
        <mxCell id="z_KxUEg1rJt2UnxQ0d3g-27" value="&lt;b&gt;&lt;font style=&quot;font-size: 20px;&quot;&gt;Completion time&lt;br&gt;&lt;/font&gt;&lt;/b&gt;" style="text;html=1;align=center;verticalAlign=middle;resizable=0;points=[];autosize=1;strokeColor=none;fillColor=none;rotation=0;" vertex="1" parent="1">
          <mxGeometry x="745" y="630" width="180" height="40" as="geometry" />
        </mxCell>
        <mxCell id="z_KxUEg1rJt2UnxQ0d3g-28" value="" style="rounded=0;whiteSpace=wrap;html=1;fillColor=#dae8fc;strokeColor=#6c8ebf;" vertex="1" parent="1">
          <mxGeometry x="320" y="480" width="30" height="80" as="geometry" />
        </mxCell>
        <mxCell id="z_KxUEg1rJt2UnxQ0d3g-29" value="" style="rounded=0;whiteSpace=wrap;html=1;fillColor=#dae8fc;strokeColor=#6c8ebf;" vertex="1" parent="1">
          <mxGeometry x="370" y="480" width="30" height="80" as="geometry" />
        </mxCell>
        <mxCell id="z_KxUEg1rJt2UnxQ0d3g-30" value="" style="rounded=0;whiteSpace=wrap;html=1;fillColor=#dae8fc;strokeColor=#6c8ebf;" vertex="1" parent="1">
          <mxGeometry x="420" y="480" width="30" height="80" as="geometry" />
        </mxCell>
        <mxCell id="z_KxUEg1rJt2UnxQ0d3g-31" value="" style="rounded=0;whiteSpace=wrap;html=1;fillColor=#dae8fc;strokeColor=#6c8ebf;" vertex="1" parent="1">
          <mxGeometry x="470" y="480" width="30" height="80" as="geometry" />
        </mxCell>
        <mxCell id="z_KxUEg1rJt2UnxQ0d3g-32" value="" style="rounded=0;whiteSpace=wrap;html=1;fillColor=#dae8fc;strokeColor=#6c8ebf;" vertex="1" parent="1">
          <mxGeometry x="520" y="480" width="30" height="80" as="geometry" />
        </mxCell>
        <mxCell id="z_KxUEg1rJt2UnxQ0d3g-33" value="" style="rounded=0;whiteSpace=wrap;html=1;fillColor=#dae8fc;strokeColor=#6c8ebf;" vertex="1" parent="1">
          <mxGeometry x="570" y="320" width="30" height="240" as="geometry" />
        </mxCell>
        <mxCell id="z_KxUEg1rJt2UnxQ0d3g-34" value="" style="rounded=0;whiteSpace=wrap;html=1;fillColor=#dae8fc;strokeColor=#6c8ebf;" vertex="1" parent="1">
          <mxGeometry x="620" y="400" width="30" height="160" as="geometry" />
        </mxCell>
        <mxCell id="z_KxUEg1rJt2UnxQ0d3g-35" value="" style="rounded=0;whiteSpace=wrap;html=1;fillColor=#dae8fc;strokeColor=#6c8ebf;" vertex="1" parent="1">
          <mxGeometry x="670" y="480" width="30" height="80" as="geometry" />
        </mxCell>
        <mxCell id="z_KxUEg1rJt2UnxQ0d3g-36" value="" style="rounded=0;whiteSpace=wrap;html=1;fillColor=#dae8fc;strokeColor=#6c8ebf;" vertex="1" parent="1">
          <mxGeometry x="720" y="480" width="30" height="80" as="geometry" />
        </mxCell>
        <mxCell id="z_KxUEg1rJt2UnxQ0d3g-37" value="" style="rounded=0;whiteSpace=wrap;html=1;fillColor=#dae8fc;strokeColor=#6c8ebf;" vertex="1" parent="1">
          <mxGeometry x="770" y="480" width="30" height="80" as="geometry" />
        </mxCell>
        <mxCell id="z_KxUEg1rJt2UnxQ0d3g-38" value="" style="rounded=0;whiteSpace=wrap;html=1;fillColor=#dae8fc;strokeColor=#6c8ebf;" vertex="1" parent="1">
          <mxGeometry x="820" y="480" width="30" height="80" as="geometry" />
        </mxCell>
        <mxCell id="z_KxUEg1rJt2UnxQ0d3g-39" value="" style="rounded=0;whiteSpace=wrap;html=1;fillColor=#dae8fc;strokeColor=#6c8ebf;" vertex="1" parent="1">
          <mxGeometry x="870" y="480" width="30" height="80" as="geometry" />
        </mxCell>
        <mxCell id="z_KxUEg1rJt2UnxQ0d3g-40" value="" style="rounded=0;whiteSpace=wrap;html=1;fillColor=#dae8fc;strokeColor=#6c8ebf;" vertex="1" parent="1">
          <mxGeometry x="920" y="480" width="30" height="80" as="geometry" />
        </mxCell>
        <mxCell id="z_KxUEg1rJt2UnxQ0d3g-41" value="" style="rounded=0;whiteSpace=wrap;html=1;fillColor=#ffe6cc;strokeColor=#d79b00;" vertex="1" parent="1">
          <mxGeometry x="970" y="480" width="30" height="80" as="geometry" />
        </mxCell>
        <mxCell id="z_KxUEg1rJt2UnxQ0d3g-42" value="" style="rounded=0;whiteSpace=wrap;html=1;fillColor=#dae8fc;strokeColor=#6c8ebf;" vertex="1" parent="1">
          <mxGeometry x="1020" y="480" width="30" height="80" as="geometry" />
        </mxCell>
        <mxCell id="z_KxUEg1rJt2UnxQ0d3g-43" value="" style="rounded=0;whiteSpace=wrap;html=1;fillColor=#dae8fc;strokeColor=#6c8ebf;" vertex="1" parent="1">
          <mxGeometry x="1170" y="400" width="30" height="160" as="geometry" />
        </mxCell>
        <mxCell id="z_KxUEg1rJt2UnxQ0d3g-44" value="" style="rounded=0;whiteSpace=wrap;html=1;fillColor=#dae8fc;strokeColor=#6c8ebf;" vertex="1" parent="1">
          <mxGeometry x="1120" y="480" width="30" height="80" as="geometry" />
        </mxCell>
        <mxCell id="z_KxUEg1rJt2UnxQ0d3g-45" value="" style="rounded=0;whiteSpace=wrap;html=1;fillColor=#dae8fc;strokeColor=#6c8ebf;" vertex="1" parent="1">
          <mxGeometry x="1220" y="480" width="30" height="80" as="geometry" />
        </mxCell>
        <mxCell id="z_KxUEg1rJt2UnxQ0d3g-46" value="" style="rounded=0;whiteSpace=wrap;html=1;fillColor=#dae8fc;strokeColor=#6c8ebf;" vertex="1" parent="1">
          <mxGeometry x="1270" y="480" width="30" height="80" as="geometry" />
        </mxCell>
        <mxCell id="z_KxUEg1rJt2UnxQ0d3g-47" value="" style="rounded=0;whiteSpace=wrap;html=1;fillColor=#dae8fc;strokeColor=#6c8ebf;" vertex="1" parent="1">
          <mxGeometry x="1070" y="240" width="30" height="320" as="geometry" />
        </mxCell>
        <mxCell id="z_KxUEg1rJt2UnxQ0d3g-48" value="&lt;font style=&quot;font-size: 20px;&quot;&gt;0.0&lt;font&gt;&lt;br&gt;&lt;/font&gt;&lt;/font&gt;" style="text;html=1;align=center;verticalAlign=middle;resizable=0;points=[];autosize=1;strokeColor=none;fillColor=none;rotation=0;" vertex="1" parent="1">
          <mxGeometry x="225" y="540" width="50" height="40" as="geometry" />
        </mxCell>
        <mxCell id="z_KxUEg1rJt2UnxQ0d3g-49" value="&lt;font style=&quot;font-size: 20px;&quot;&gt;1.0&lt;font&gt;&lt;br&gt;&lt;/font&gt;&lt;/font&gt;" style="text;html=1;align=center;verticalAlign=middle;resizable=0;points=[];autosize=1;strokeColor=none;fillColor=none;rotation=0;" vertex="1" parent="1">
          <mxGeometry x="225" y="460" width="50" height="40" as="geometry" />
        </mxCell>
        <mxCell id="z_KxUEg1rJt2UnxQ0d3g-53" value="&lt;font style=&quot;font-size: 20px;&quot;&gt;3.0&lt;font&gt;&lt;br&gt;&lt;/font&gt;&lt;/font&gt;" style="text;html=1;align=center;verticalAlign=middle;resizable=0;points=[];autosize=1;strokeColor=none;fillColor=none;rotation=0;" vertex="1" parent="1">
          <mxGeometry x="225" y="300" width="50" height="40" as="geometry" />
        </mxCell>
        <mxCell id="z_KxUEg1rJt2UnxQ0d3g-54" value="&lt;font style=&quot;font-size: 20px;&quot;&gt;4.0&lt;font&gt;&lt;br&gt;&lt;/font&gt;&lt;/font&gt;" style="text;html=1;align=center;verticalAlign=middle;resizable=0;points=[];autosize=1;strokeColor=none;fillColor=none;rotation=0;" vertex="1" parent="1">
          <mxGeometry x="225" y="220" width="50" height="40" as="geometry" />
        </mxCell>
        <mxCell id="z_KxUEg1rJt2UnxQ0d3g-55" value="&lt;font style=&quot;font-size: 20px;&quot;&gt;2.0&lt;font&gt;&lt;br&gt;&lt;/font&gt;&lt;/font&gt;" style="text;html=1;align=center;verticalAlign=middle;resizable=0;points=[];autosize=1;strokeColor=none;fillColor=none;rotation=0;" vertex="1" parent="1">
          <mxGeometry x="225" y="380" width="50" height="40" as="geometry" />
        </mxCell>
        <mxCell id="z_KxUEg1rJt2UnxQ0d3g-52" value="" style="endArrow=none;dashed=1;html=1;rounded=0;dashPattern=12 12;opacity=30;" edge="1" parent="1">
          <mxGeometry width="50" height="50" relative="1" as="geometry">
            <mxPoint x="290" y="320" as="sourcePoint" />
            <mxPoint x="1310" y="320" as="targetPoint" />
          </mxGeometry>
        </mxCell>
        <mxCell id="z_KxUEg1rJt2UnxQ0d3g-56" value="" style="endArrow=none;dashed=1;html=1;rounded=0;dashPattern=12 12;opacity=30;" edge="1" parent="1">
          <mxGeometry width="50" height="50" relative="1" as="geometry">
            <mxPoint x="290" y="239.68" as="sourcePoint" />
            <mxPoint x="1310" y="239.68" as="targetPoint" />
          </mxGeometry>
        </mxCell>
        <mxCell id="z_KxUEg1rJt2UnxQ0d3g-57" value="" style="endArrow=none;dashed=1;html=1;rounded=0;dashPattern=12 12;opacity=30;" edge="1" parent="1">
          <mxGeometry width="50" height="50" relative="1" as="geometry">
            <mxPoint x="290" y="479.99999999999994" as="sourcePoint" />
            <mxPoint x="1310" y="479.99999999999994" as="targetPoint" />
          </mxGeometry>
        </mxCell>
        <mxCell id="z_KxUEg1rJt2UnxQ0d3g-58" value="" style="endArrow=none;dashed=1;html=1;rounded=0;dashPattern=12 12;opacity=30;" edge="1" parent="1">
          <mxGeometry width="50" height="50" relative="1" as="geometry">
            <mxPoint x="290" y="400" as="sourcePoint" />
            <mxPoint x="1310" y="400" as="targetPoint" />
          </mxGeometry>
        </mxCell>
        <mxCell id="z_KxUEg1rJt2UnxQ0d3g-3" value="" style="endArrow=classic;html=1;rounded=0;strokeWidth=2;" edge="1" parent="1">
          <mxGeometry width="50" height="50" relative="1" as="geometry">
            <mxPoint x="280" y="560" as="sourcePoint" />
            <mxPoint x="1330" y="560" as="targetPoint" />
          </mxGeometry>
        </mxCell>
        <mxCell id="z_KxUEg1rJt2UnxQ0d3g-61" value="&lt;font style=&quot;font-size: 20px;&quot;&gt;10.27&lt;font&gt;&lt;br&gt;&lt;/font&gt;&lt;/font&gt;" style="text;html=1;align=center;verticalAlign=middle;resizable=0;points=[];autosize=1;strokeColor=none;fillColor=none;rotation=-45;" vertex="1" parent="1">
          <mxGeometry x="290" y="570" width="70" height="40" as="geometry" />
        </mxCell>
        <mxCell id="z_KxUEg1rJt2UnxQ0d3g-62" value="&lt;font style=&quot;font-size: 20px;&quot;&gt;10.32&lt;font&gt;&lt;br&gt;&lt;/font&gt;&lt;/font&gt;" style="text;html=1;align=center;verticalAlign=middle;resizable=0;points=[];autosize=1;strokeColor=none;fillColor=none;rotation=-45;" vertex="1" parent="1">
          <mxGeometry x="340" y="570" width="70" height="40" as="geometry" />
        </mxCell>
        <mxCell id="z_KxUEg1rJt2UnxQ0d3g-63" value="&lt;font style=&quot;font-size: 20px;&quot;&gt;10.33&lt;font&gt;&lt;br&gt;&lt;/font&gt;&lt;/font&gt;" style="text;html=1;align=center;verticalAlign=middle;resizable=0;points=[];autosize=1;strokeColor=none;fillColor=none;rotation=-45;" vertex="1" parent="1">
          <mxGeometry x="390" y="570" width="70" height="40" as="geometry" />
        </mxCell>
        <mxCell id="z_KxUEg1rJt2UnxQ0d3g-64" value="&lt;font style=&quot;font-size: 20px;&quot;&gt;10.35&lt;font&gt;&lt;br&gt;&lt;/font&gt;&lt;/font&gt;" style="text;html=1;align=center;verticalAlign=middle;resizable=0;points=[];autosize=1;strokeColor=none;fillColor=none;rotation=-45;" vertex="1" parent="1">
          <mxGeometry x="440" y="570" width="70" height="40" as="geometry" />
        </mxCell>
        <mxCell id="z_KxUEg1rJt2UnxQ0d3g-65" value="&lt;font style=&quot;font-size: 20px;&quot;&gt;10.37&lt;font&gt;&lt;br&gt;&lt;/font&gt;&lt;/font&gt;" style="text;html=1;align=center;verticalAlign=middle;resizable=0;points=[];autosize=1;strokeColor=none;fillColor=none;rotation=-45;" vertex="1" parent="1">
          <mxGeometry x="490" y="570" width="70" height="40" as="geometry" />
        </mxCell>
        <mxCell id="z_KxUEg1rJt2UnxQ0d3g-66" value="&lt;font style=&quot;font-size: 20px;&quot;&gt;10.38&lt;font&gt;&lt;br&gt;&lt;/font&gt;&lt;/font&gt;" style="text;html=1;align=center;verticalAlign=middle;resizable=0;points=[];autosize=1;strokeColor=none;fillColor=none;rotation=-45;" vertex="1" parent="1">
          <mxGeometry x="540" y="570" width="70" height="40" as="geometry" />
        </mxCell>
        <mxCell id="z_KxUEg1rJt2UnxQ0d3g-67" value="&lt;font style=&quot;font-size: 20px;&quot;&gt;10.40&lt;font&gt;&lt;br&gt;&lt;/font&gt;&lt;/font&gt;" style="text;html=1;align=center;verticalAlign=middle;resizable=0;points=[];autosize=1;strokeColor=none;fillColor=none;rotation=-45;" vertex="1" parent="1">
          <mxGeometry x="590" y="570" width="70" height="40" as="geometry" />
        </mxCell>
        <mxCell id="z_KxUEg1rJt2UnxQ0d3g-68" value="&lt;font style=&quot;font-size: 20px;&quot;&gt;10.41&lt;font&gt;&lt;br&gt;&lt;/font&gt;&lt;/font&gt;" style="text;html=1;align=center;verticalAlign=middle;resizable=0;points=[];autosize=1;strokeColor=none;fillColor=none;rotation=-45;" vertex="1" parent="1">
          <mxGeometry x="640" y="570" width="70" height="40" as="geometry" />
        </mxCell>
        <mxCell id="z_KxUEg1rJt2UnxQ0d3g-69" value="&lt;font style=&quot;font-size: 20px;&quot;&gt;10.44&lt;font&gt;&lt;br&gt;&lt;/font&gt;&lt;/font&gt;" style="text;html=1;align=center;verticalAlign=middle;resizable=0;points=[];autosize=1;strokeColor=none;fillColor=none;rotation=-45;" vertex="1" parent="1">
          <mxGeometry x="690" y="570" width="70" height="40" as="geometry" />
        </mxCell>
        <mxCell id="z_KxUEg1rJt2UnxQ0d3g-70" value="&lt;font style=&quot;font-size: 20px;&quot;&gt;10.53&lt;font&gt;&lt;br&gt;&lt;/font&gt;&lt;/font&gt;" style="text;html=1;align=center;verticalAlign=middle;resizable=0;points=[];autosize=1;strokeColor=none;fillColor=none;rotation=-45;" vertex="1" parent="1">
          <mxGeometry x="740" y="570" width="70" height="40" as="geometry" />
        </mxCell>
        <mxCell id="z_KxUEg1rJt2UnxQ0d3g-71" value="&lt;font style=&quot;font-size: 20px;&quot;&gt;10.56&lt;font&gt;&lt;br&gt;&lt;/font&gt;&lt;/font&gt;" style="text;html=1;align=center;verticalAlign=middle;resizable=0;points=[];autosize=1;strokeColor=none;fillColor=none;rotation=-45;" vertex="1" parent="1">
          <mxGeometry x="790" y="570" width="70" height="40" as="geometry" />
        </mxCell>
        <mxCell id="z_KxUEg1rJt2UnxQ0d3g-72" value="&lt;font style=&quot;font-size: 20px;&quot;&gt;11.10&lt;font&gt;&lt;br&gt;&lt;/font&gt;&lt;/font&gt;" style="text;html=1;align=center;verticalAlign=middle;resizable=0;points=[];autosize=1;strokeColor=none;fillColor=none;rotation=-45;" vertex="1" parent="1">
          <mxGeometry x="840" y="570" width="70" height="40" as="geometry" />
        </mxCell>
        <mxCell id="z_KxUEg1rJt2UnxQ0d3g-73" value="&lt;font style=&quot;font-size: 20px;&quot;&gt;11.13&lt;font&gt;&lt;br&gt;&lt;/font&gt;&lt;/font&gt;" style="text;html=1;align=center;verticalAlign=middle;resizable=0;points=[];autosize=1;strokeColor=none;fillColor=none;rotation=-45;" vertex="1" parent="1">
          <mxGeometry x="890" y="570" width="70" height="40" as="geometry" />
        </mxCell>
        <mxCell id="z_KxUEg1rJt2UnxQ0d3g-75" value="&lt;font style=&quot;font-size: 20px;&quot;&gt;11.52&lt;font&gt;&lt;br&gt;&lt;/font&gt;&lt;/font&gt;" style="text;html=1;align=center;verticalAlign=middle;resizable=0;points=[];autosize=1;strokeColor=none;fillColor=none;rotation=-45;" vertex="1" parent="1">
          <mxGeometry x="990" y="570" width="70" height="40" as="geometry" />
        </mxCell>
        <mxCell id="z_KxUEg1rJt2UnxQ0d3g-76" value="&lt;font style=&quot;font-size: 20px;&quot;&gt;14.19&lt;font&gt;&lt;br&gt;&lt;/font&gt;&lt;/font&gt;" style="text;html=1;align=center;verticalAlign=middle;resizable=0;points=[];autosize=1;strokeColor=none;fillColor=none;rotation=-45;" vertex="1" parent="1">
          <mxGeometry x="1040" y="570" width="70" height="40" as="geometry" />
        </mxCell>
        <mxCell id="z_KxUEg1rJt2UnxQ0d3g-77" value="&lt;font style=&quot;font-size: 20px;&quot;&gt;14.21&lt;font&gt;&lt;br&gt;&lt;/font&gt;&lt;/font&gt;" style="text;html=1;align=center;verticalAlign=middle;resizable=0;points=[];autosize=1;strokeColor=none;fillColor=none;rotation=-45;" vertex="1" parent="1">
          <mxGeometry x="1090" y="570" width="70" height="40" as="geometry" />
        </mxCell>
        <mxCell id="z_KxUEg1rJt2UnxQ0d3g-78" value="&lt;font style=&quot;font-size: 20px;&quot;&gt;14.22&lt;font&gt;&lt;br&gt;&lt;/font&gt;&lt;/font&gt;" style="text;html=1;align=center;verticalAlign=middle;resizable=0;points=[];autosize=1;strokeColor=none;fillColor=none;rotation=-45;" vertex="1" parent="1">
          <mxGeometry x="1140" y="570" width="70" height="40" as="geometry" />
        </mxCell>
        <mxCell id="z_KxUEg1rJt2UnxQ0d3g-79" value="&lt;font style=&quot;font-size: 20px;&quot;&gt;14.25&lt;font&gt;&lt;br&gt;&lt;/font&gt;&lt;/font&gt;" style="text;html=1;align=center;verticalAlign=middle;resizable=0;points=[];autosize=1;strokeColor=none;fillColor=none;rotation=-45;" vertex="1" parent="1">
          <mxGeometry x="1190" y="570" width="70" height="40" as="geometry" />
        </mxCell>
        <mxCell id="z_KxUEg1rJt2UnxQ0d3g-80" value="&lt;font style=&quot;font-size: 20px;&quot;&gt;15.02&lt;font&gt;&lt;br&gt;&lt;/font&gt;&lt;/font&gt;" style="text;html=1;align=center;verticalAlign=middle;resizable=0;points=[];autosize=1;strokeColor=none;fillColor=none;rotation=-45;" vertex="1" parent="1">
          <mxGeometry x="1240" y="570" width="70" height="40" as="geometry" />
        </mxCell>
        <mxCell id="z_KxUEg1rJt2UnxQ0d3g-83" value="" style="endArrow=none;html=1;rounded=0;dashed=1;dashPattern=12 12;opacity=30;" edge="1" parent="1">
          <mxGeometry width="50" height="50" relative="1" as="geometry">
            <mxPoint x="985" y="560" as="sourcePoint" />
            <mxPoint x="985" y="220" as="targetPoint" />
          </mxGeometry>
        </mxCell>
        <mxCell id="z_KxUEg1rJt2UnxQ0d3g-84" value="&lt;font style=&quot;font-size: 20px;&quot;&gt;AVG&lt;font&gt;&lt;br&gt;&lt;/font&gt;&lt;/font&gt;" style="text;html=1;align=center;verticalAlign=middle;resizable=0;points=[];autosize=1;strokeColor=none;fillColor=none;rotation=0;" vertex="1" parent="1">
          <mxGeometry x="955" y="190" width="60" height="40" as="geometry" />
        </mxCell>
      </root>
    </mxGraphModel>
  </diagram>
</mxfile>
